<svg xmlns="http://www.w3.org/2000/svg" viewBox="0 0 120 120" role="img" aria-label="Cheval">
  <defs><linearGradient id="cheval-robe" x1="0.3" y1="0" x2="0.7" y2="1">
    <stop offset="0" stop-color="#c99a63"/><stop offset="55%" stop-color="#a3743f"/><stop offset="100%" stop-color="#734d24"/>
  </linearGradient></defs>
  <ellipse cx="60" cy="112" rx="34" ry="5.5" fill="#000" opacity="0.18"/>
  <path d="M32 104 v-22 M50 108 v-24 M74 108 v-24 M92 104 v-22" stroke="#8a6234" stroke-width="9" stroke-linecap="round"/>
  <ellipse cx="62" cy="70" rx="36" ry="24" fill="url(#cheval-robe)" stroke="#5f3f1c" stroke-width="3.5"/>
  <path d="M96 84 q18 -8 16 -26" stroke="#4d3a22" stroke-width="8" fill="none" stroke-linecap="round"/>
  <path d="M34 56 q-14 -12 -14 -28 q0 -12 12 -12 q14 0 18 16 l4 18z" fill="url(#cheval-robe)" stroke="#5f3f1c" stroke-width="3.5" stroke-linejoin="round"/>
  <path d="M22 20 l-4 -14 14 8z" fill="url(#cheval-robe)" stroke="#5f3f1c" stroke-width="3" stroke-linejoin="round"/>
  <path d="M36 18 q10 6 14 22 q4 14 4 20" stroke="#4d3a22" stroke-width="8" fill="none" stroke-linecap="round"/>
  <circle cx="30" cy="30" r="4.5" fill="#2d2016"/><circle cx="28.6" cy="28.6" r="1.8" fill="#fff"/>
  <ellipse cx="20" cy="44" rx="6" ry="5" fill="#4d3a22"/>
</svg>
